USFL
nRows=146
nColumns=2
inDegrees=yes
endheader
time	soleus_r	
3.5	 23.317886	
3.5625	 23.307245	
3.625	 23.265648	
3.6875	 23.242555	
3.75	 23.263936	
3.8125	 23.293135	
3.875	 23.322571	
3.9375	 23.294371	
4	 23.274908	
4.0625	 23.261539	
4.125	 23.268638	
4.1875	 23.271520	
4.25	 23.295926	
4.3125	 23.275538	
4.375	 23.239864	
4.4375	 23.225531	
4.5	 23.221349	
4.5625	 23.249927	
4.625	 23.220712	
4.6875	 23.243400	
4.75	 23.271768	
4.8125	 23.214537	
4.875	 23.222478	
4.9375	 23.158878	
5	 23.079662	
5.0625	 23.089417	
5.125	 23.034277	
5.1875	 23.015658	
5.25	 22.989219	
5.3125	 22.886046	
5.375	 22.773873	
5.4375	 22.752575	
5.5	 22.765460	
5.5625	 22.737120	
5.625	 22.721992	
5.6875	 22.657049	
5.75	 22.604288	
5.8125	 22.581310	
5.875	 22.584168	
5.9375	 22.561760	
6	 22.604962	
6.0625	 22.431637	
6.125	 22.364411	
6.1875	 22.298851	
6.25	 22.158327	
6.3125	 22.003280	
6.375	 21.866382	
6.4375	 21.721042	
6.5	 21.578469	
6.5625	 21.561600	
6.625	 21.601415	
6.6875	 21.567641	
6.75	 21.581693	
6.8125	 21.513741	
6.875	 21.504407	
6.9375	 21.486173	
7	 21.465302	
7.0625	 21.491721	
7.125	 21.474309	
7.1875	 21.544452	
7.25	 21.604232	
7.3125	 21.628469	
7.375	 21.626200	
7.4375	 21.624721	
7.5	 21.643839	
7.5625	 21.745277	
7.625	 21.854759	
7.6875	 21.837414	
7.75	 21.874125	
7.8125	 21.918624	
7.875	 21.928734	
7.9375	 22.024806	
8	 22.026096	
8.0625	 21.994315	
8.125	 21.943871	
8.1875	 21.986216	
8.25	 21.979874	
8.3125	 22.047434	
8.375	 22.067984	
8.4375	 22.050218	
8.5	 22.172700	
8.5625	 22.240157	
8.625	 22.248007	
8.6875	 22.376181	
8.75	 22.495434	
8.8125	 22.493646	
8.875	 22.572611	
8.9375	 22.622030	
9	 22.602992	
9.0625	 22.575979	
9.125	 22.544867	
9.1875	 22.547993	
9.25	 22.477280	
9.3125	 22.471122	
9.375	 22.468045	
9.4375	 22.509321	
9.5	 22.531862	
9.5625	 22.524452	
9.625	 22.558863	
9.6875	 22.542452	
9.75	 22.549748	
9.8125	 22.508444	
9.875	 22.561106	
9.9375	 22.571482	
10	 22.707052	
10.0625	 22.743993	
10.125	 22.723625	
10.1875	 22.803274	
10.25	 22.895525	
10.3125	 22.985490	
10.375	 23.111555	
10.4375	 23.146747	
10.5	 23.101572	
10.5625	 23.013324	
10.625	 22.942211	
10.6875	 22.911353	
10.75	 22.846114	
10.8125	 22.902826	
10.875	 22.913187	
10.9375	 22.859649	
11	 22.863327	
11.0625	 22.832273	
11.125	 22.803976	
11.1875	 22.866987	
11.25	 22.839607	
11.3125	 22.828781	
11.375	 22.766485	
11.4375	 22.717939	
11.5	 22.685784	
11.5625	 22.642941	
11.625	 22.629920	
11.6875	 22.546568	
11.75	 22.469860	
11.8125	 22.486798	
11.875	 22.470925	
11.9375	 22.413402	
12	 22.397491	
12.0625	 22.397795	
12.125	 22.408740	
12.1875	 22.430321	
12.25	 22.476732	
12.3125	 22.467132	
12.375	 22.477233	
12.4375	 22.500435	
12.5	 22.508497	
12.5625	 22.516755	
